HIERARCHY
ROOT hip
{
	OFFSET 0.000000 0.000000 0.000000 
	CHANNELS 6 Xposition Yposition Zposition Xrotation Zrotation Yrotation
	JOINT abdomen
	{
		OFFSET 0.000000 3.402643 0.000000 
		CHANNELS 3 Xrotation Zrotation Yrotation
		JOINT chest
		{
			OFFSET 0.000000 8.438565 -0.680529 
			CHANNELS 3 Xrotation Zrotation Yrotation
			JOINT neck
			{
				OFFSET 0.000000 10.207942 -0.272212 
				CHANNELS 3 Xrotation Zrotation Yrotation
				JOINT head
				{
					OFFSET 0.000000 3.130431 0.000000 
					CHANNELS 3 Xrotation Zrotation Yrotation
					End Site
					{
						OFFSET 0.000000 3.130435 0.000000 
					}
				}
			}
			JOINT lCollar
			{
				OFFSET 3.470700 6.669187 -0.816635 
				CHANNELS 3 Yrotation Zrotation Xrotation
				JOINT lShldr
				{
					OFFSET 3.198488 0.000000 0.000000 
					CHANNELS 3 Zrotation Yrotation Xrotation
					JOINT lForeArm
					{
						OFFSET 10.139888 0.000000 0.000000 
						CHANNELS 3 Yrotation Zrotation Xrotation
						JOINT lHand
						{
							OFFSET 8.370511 0.000000 0.000000 
							CHANNELS 3 Zrotation Yrotation Xrotation
							End Site
							{
								OFFSET 4.083176 0.000000 0.000000 
							}
						}
					}
				}
			}
			JOINT rCollar
			{
				OFFSET -3.470700 6.669187 -0.816635 
				CHANNELS 3 Yrotation Zrotation Xrotation
				JOINT rShldr
				{
					OFFSET -3.198488 0.000000 0.000000 
					CHANNELS 3 Zrotation Yrotation Xrotation
					JOINT rForeArm
					{
						OFFSET -10.139888 0.000000 0.000000 
						CHANNELS 3 Yrotation Zrotation Xrotation
						JOINT rHand
						{
							OFFSET -8.370511 0.000000 0.000000 
							CHANNELS 3 Zrotation Yrotation Xrotation
							End Site
							{
								OFFSET -4.083176 0.000000 0.000000 
							}
						}
					}
				}
			}
		}
	}
	JOINT lThigh
	{
		OFFSET 5.308129 -1.633274 1.361059 
		CHANNELS 3 Xrotation Zrotation Yrotation
		JOINT lShin
		{
			OFFSET -2.041588 -20.007561 0.000000 
			CHANNELS 3 Xrotation Zrotation Yrotation
			JOINT lFoot
			{
				OFFSET 0.000000 -19.190928 -1.224953 
				CHANNELS 3 Xrotation Yrotation Zrotation
				End Site
				{
					OFFSET 0.000000 -2.449906 4.627600 
				}
			}
		}
	}
	JOINT rThigh
	{
		OFFSET -5.308129 -1.633274 1.361059 
		CHANNELS 3 Xrotation Zrotation Yrotation
		JOINT rShin
		{
			OFFSET 2.041588 -20.007561 0.000000 
			CHANNELS 3 Xrotation Zrotation Yrotation
			JOINT rFoot
			{
				OFFSET 0.000000 -19.190928 -1.224953 
				CHANNELS 3 Xrotation Yrotation Zrotation
				End Site
				{
					OFFSET 0.000000 -2.449906 4.627600 
				}
			}
		}
	}
}
MOTION
Frames: 18
Frame Time: 0.016667
0.564003 47.686569 1.115556 -8.705217 -7.998858 -8.472255 0.000000 0.000000 0.000000 32.677860 -5.492294 2.628531 14.051442 8.832453 2.026186 -32.932095 -5.436066 5.267671 -3.618925 13.233772 0.789814 -4.688803 -1.450572 -2.379074 -83.702614 -11.068837 1.366307 2.300703 -3.714618 -3.562392 -34.997536 -0.637661 -0.511978 -4.076358 -0.977619 52.513710 77.741699 -31.191236 -8.631555 -3.102074 2.068609 -3.590815 -9.959929 14.607746 0.691828 36.580196 -5.300584 12.824029 -19.147989 0.292662 0.148981 10.383389 -9.212203 -0.725110 45.655960 3.779285 -4.483092 -12.118910 -0.123404 0.133486 
0.786853 47.719994 2.018081 -8.877139 -7.999864 -9.320037 0.000000 0.000000 0.000000 33.199554 -7.681578 1.852091 13.532014 9.193389 2.058195 -32.932095 -5.436066 5.267671 -4.129986 11.652461 0.813880 -6.223161 -0.402996 0.358270 -83.829903 -10.748994 1.347317 2.300703 -3.714618 -3.562392 -34.903580 -3.819411 -2.719925 -4.777638 -1.330433 52.551849 78.759926 -28.924953 -7.614666 -3.102074 2.068609 -3.590815 -8.247510 14.650648 0.453660 36.951519 -6.808459 13.873549 -20.359402 0.267287 0.149053 6.206807 -9.387813 -0.696955 54.415066 3.261061 -1.907450 -10.350949 -0.085424 0.380271 
0.976270 47.675415 2.920622 -9.421099 -7.994496 -9.962038 0.000000 0.000000 0.000000 34.120106 -9.656025 1.228178 12.840460 9.905637 2.091973 -32.908627 -5.172523 5.382572 -4.119100 10.077211 0.711048 -8.287371 0.637235 3.420532 -85.132545 -9.318212 1.122096 2.290382 -3.538901 -3.565149 -35.759525 -6.209475 -4.511101 -5.963316 -0.672806 48.737438 78.960289 -24.187519 -6.563742 -3.102074 2.068609 -3.590815 -6.170094 14.692640 0.564349 36.975475 -7.954699 14.066883 -21.968985 0.378144 0.234024 2.059596 -9.616153 -0.650851 62.625484 2.732911 0.777813 -10.722101 -0.105803 -0.041062 
1.121122 47.597424 3.812006 -10.132517 -7.969238 -10.207808 0.000000 0.000000 0.000000 35.046894 -11.307631 0.756502 12.149767 10.617851 2.127820 -33.064941 -4.887986 5.693898 -4.094728 8.668872 0.600675 -10.877803 1.669497 6.471725 -87.078667 -7.526432 0.887030 2.290382 -3.538901 -3.565149 -36.948227 -7.535409 -5.693023 -7.598996 0.458165 39.674015 78.573532 -16.161705 -5.190053 -3.102074 2.068609 -3.590815 -4.218581 14.803137 0.700486 37.445892 -9.137181 13.927744 -23.200985 0.374777 0.011013 -1.073579 -9.415207 -0.621263 69.235168 2.968745 2.018255 -11.757135 -0.175208 0.096867 
1.254831 47.541721 4.703396 -10.838011 -8.131378 -10.261627 0.000000 0.000000 0.000000 35.975349 -12.635979 0.630241 11.478474 11.505616 2.173762 -33.042068 -4.623281 5.976148 -4.259631 6.916394 0.500132 -13.659382 3.386526 9.157440 -88.748703 -5.872795 0.563384 2.278876 -3.363961 -3.548454 -38.581787 -7.784210 -6.218164 -9.478695 1.738037 25.885830 77.700218 -5.249064 -3.048236 -3.091408 1.892881 -3.591137 -2.479108 14.826083 0.793833 37.983196 -10.009629 13.743321 -24.237658 0.227006 -0.046528 -4.215726 -9.074665 -0.567850 74.880508 3.300800 2.456845 -13.699576 0.120995 0.260270 
1.388540 47.508289 5.605920 -11.370237 -8.114147 -10.181550 0.000000 0.000000 0.000000 36.516712 -13.709180 0.933244 10.607622 12.237899 2.130081 -33.028477 -4.494974 6.220290 -5.131616 5.329345 0.468497 -16.651720 5.617061 11.304436 -89.494827 -4.704168 0.651756 2.278876 -3.363961 -3.548454 -40.501373 -7.429439 -6.377268 -10.946559 2.895401 9.805204 76.564034 6.763546 -0.383924 -3.091408 1.892881 -3.591137 -0.888055 14.675014 0.760947 38.560333 -10.772233 13.872173 -25.651676 0.350655 0.221483 -7.017753 -8.764283 -0.515771 78.380104 3.876082 3.048713 -14.919741 0.165808 0.275838 
1.499962 47.486000 6.519608 -11.897450 -7.922633 -10.147091 0.000000 0.000000 0.000000 37.094158 -14.770453 1.513527 9.725168 12.785258 2.023138 -33.018269 -4.231903 6.335653 -6.348447 3.916366 0.437752 -19.842514 8.382087 12.409332 -89.253197 -4.203686 0.815633 2.278876 -3.363961 -3.548454 -42.235298 -6.969794 -6.367371 -11.941421 3.777630 -2.778438 75.511078 14.841967 1.364375 -3.091408 1.892881 -3.591137 1.035507 14.126344 0.821926 38.485893 -11.197136 14.091249 -26.363132 0.508636 0.147569 -9.661565 -8.422164 -0.538797 79.752731 4.716747 4.796921 -16.503904 -0.009023 0.017100 
1.577960 47.474861 7.455559 -12.432894 -7.900749 -10.254802 0.000000 0.000000 0.000000 37.624073 -15.542278 2.523220 8.824968 12.825685 1.833555 -33.021507 -4.230443 6.511669 -7.221259 2.527890 0.319834 -23.240618 10.964589 12.768269 -88.018501 -4.159154 1.190710 2.290382 -3.538901 -3.565149 -43.607784 -6.559650 -6.301834 -11.826210 4.134364 -8.389894 75.138153 15.697907 1.361999 -3.091408 1.892881 -3.591137 2.928988 13.511750 0.636622 38.572487 -11.738627 14.788860 -27.234503 0.307628 0.187510 -11.782475 -8.268298 -0.707389 78.669594 5.781195 5.674749 -17.568140 -0.082309 -0.046661 
1.611386 47.486000 8.391514 -12.776642 -7.554334 -10.266256 0.000000 0.000000 0.000000 37.774075 -16.232372 3.415092 8.455925 12.835987 1.753046 -33.021507 -4.230443 6.511669 -8.264163 0.955510 0.144944 -26.312708 13.524512 12.300603 -86.199631 -4.650544 1.413575 2.290382 -3.538901 -3.565149 -44.487553 -6.465008 -6.397274 -10.972233 4.469721 -7.564913 75.261566 9.656545 -0.753162 -3.091408 1.892881 -3.591137 4.812574 12.807285 0.313664 37.965767 -11.982174 15.289138 -28.104870 0.186876 0.095352 -13.492470 -8.591567 -0.511937 75.091385 7.870734 6.192339 -17.918926 -0.294337 0.276287 
1.644814 47.497143 9.305195 -12.585116 -7.043494 -9.880844 0.000000 0.000000 0.000000 37.480259 -16.583517 3.963898 8.279258 12.494916 1.660863 -33.021717 -4.357081 6.453965 -8.965367 -0.438566 -0.067522 -28.889225 16.113525 11.107803 -84.427017 -5.950592 1.747185 2.300703 -3.714618 -3.562392 -45.000000 -6.645645 -6.728100 -9.643280 4.795931 -3.052484 74.367722 0.371502 -3.558957 -3.091408 1.892881 -3.591137 6.112659 12.038305 0.622715 37.684032 -11.553411 14.980213 -28.640982 0.291557 0.193249 -15.232647 -9.110520 -0.469040 69.334595 10.341717 5.179173 -17.929119 -0.228554 0.291625 
1.655956 47.497143 10.207724 -12.023770 -6.033859 -9.280621 0.000000 0.000000 0.000000 36.764690 -16.732704 3.803031 8.442517 12.143561 1.649218 -33.031761 -4.493536 6.386555 -9.158016 -1.657270 -0.260205 -30.749737 18.711025 10.178216 -83.874283 -7.633945 2.262965 2.300703 -3.714618 -3.562392 -45.000000 -7.014368 -7.102797 -8.169932 5.318676 2.304569 72.117676 -9.287101 -7.423452 -3.091408 1.892881 -3.591137 6.747290 10.886806 0.521336 36.949383 -11.483594 15.106215 -28.807873 0.202293 0.119401 -16.764654 -9.959357 -0.569997 61.610371 12.792862 3.138209 -17.919199 -0.042085 0.386995 
1.633671 47.474861 11.132547 -11.306335 -4.842994 -8.184348 0.000000 0.000000 0.000000 35.979683 -16.596607 3.197945 8.971169 11.772271 1.706514 -33.036751 -4.621777 6.152138 -8.630049 -2.521030 -0.376621 -31.528006 20.975496 9.757019 -84.665581 -9.479096 2.411485 2.300703 -3.714618 -3.562392 -44.446381 -7.618648 -7.475814 -6.183677 5.493682 8.689390 68.444435 -19.413986 -12.275758 -3.080714 1.717155 -3.591488 7.274433 9.880903 0.384858 36.155575 -10.895943 14.401441 -29.179605 -0.043302 0.154696 -17.546398 -10.711613 -0.664507 52.094116 14.529475 -0.454657 -17.392153 -0.178326 0.121020 
1.555675 47.419147 12.090788 -10.751668 -3.634455 -7.055879 0.000000 0.000000 0.000000 35.027683 -16.491976 2.240205 9.866191 11.741865 1.886560 -33.051476 -4.759764 5.918540 -8.109381 -3.053333 -0.435494 -31.581276 22.914877 9.939176 -86.447075 -10.221176 2.352299 2.290382 -3.538901 -3.565149 -42.794880 -8.621155 -7.973155 -3.523266 5.167103 15.757600 63.103653 -29.988157 -19.555668 -3.080714 1.717155 -3.591488 7.983181 8.832191 0.254969 34.596958 -10.351645 13.735512 -29.160143 0.025541 0.018115 -17.908794 -11.425060 -0.774348 41.898010 15.221248 -5.333549 -15.780857 -0.163245 0.329699 
1.433108 47.341152 13.071311 -10.032195 -2.088889 -5.794986 0.000000 0.000000 0.000000 34.239300 -16.331644 1.625756 10.763894 11.886802 2.097304 -33.056370 -4.761253 5.741751 -7.581495 -3.752789 -0.494571 -30.346760 24.522644 11.219952 -88.468681 -9.729501 2.001102 2.290382 -3.538901 -3.565149 -40.044579 -9.541783 -7.982735 -0.653019 3.784099 21.757471 56.884491 -39.285610 -27.900234 -3.060240 1.542042 -3.591603 9.101187 7.685225 0.283265 33.257732 -9.618273 12.549058 -29.511011 0.203140 0.121809 -17.830606 -11.893614 -0.732282 31.919823 14.362520 -10.608729 -13.319839 -0.171494 0.140508 
1.299400 47.207439 14.096415 -9.507897 -0.185049 -4.199260 0.000000 0.000000 0.000000 33.261063 -16.058319 1.625778 12.037760 12.011449 2.376951 -33.060440 -4.886468 5.870699 -7.241447 -4.460071 -0.563252 -27.807594 24.923822 13.257116 -90.048332 -8.535854 1.673209 2.278876 -3.363961 -3.548454 -37.376678 -9.756217 -7.426080 1.219027 1.697161 24.654179 52.214306 -46.077587 -33.860798 -3.080714 1.717155 -3.591488 9.939469 6.248244 0.200546 32.642445 -8.974062 11.275197 -29.706415 0.186258 0.121831 -17.723934 -12.987830 -0.633271 24.172966 13.099211 -13.618767 -9.638654 0.009397 0.026078 
1.132265 47.029167 15.221793 -8.982897 1.727221 -2.217555 0.000000 0.000000 0.000000 32.613049 -15.557226 2.016186 13.451221 11.599770 2.593205 -33.060440 -4.886468 5.870699 -7.419394 -4.975677 -0.641002 -24.880930 24.090548 16.075432 -90.690750 -6.600245 1.411698 2.278876 -3.363961 -3.548454 -36.721104 -8.839196 -6.587306 1.770081 0.458990 23.751810 52.104916 -49.489765 -34.386845 -3.091408 1.892881 -3.591137 10.873791 4.801282 -0.026483 31.907906 -7.825001 9.570201 -30.398741 0.310453 0.201990 -17.185360 -13.670189 -0.791283 19.421602 10.979159 -14.167416 -5.223452 0.102697 0.044391 
0.931703 46.839745 16.458599 -8.642216 3.642524 0.313730 0.000000 0.000000 0.000000 32.072166 -14.573347 2.782992 14.820076 10.166144 2.520790 -33.051476 -4.759764 5.918540 -8.300321 -4.792831 -0.687828 -22.658833 23.248884 18.691620 -90.399864 -3.862588 1.484407 2.278876 -3.363961 -3.548454 -38.385700 -7.670864 -6.096856 1.474602 0.792078 20.080935 55.367615 -48.974869 -30.462265 -3.091408 1.892881 -3.591137 12.370547 3.797400 -0.265439 31.371202 -6.503335 7.533309 -30.937302 0.119338 0.052445 -16.627911 -14.880190 -0.687052 19.384352 9.462757 -12.846674 -2.093840 0.081075 0.221767 
0.675427 46.728321 17.795679 -9.190060 5.021371 3.225335 0.000000 0.000000 0.000000 32.336521 -12.706671 3.091820 15.616690 8.090383 2.092304 -33.042068 -4.623281 5.976148 -9.863109 -2.522453 -0.432981 -22.971825 22.874638 20.787306 -89.717209 -0.456072 1.179714 2.278876 -3.363961 -3.548454 -39.968666 -7.489081 -6.302577 1.889437 1.827359 16.374563 58.337826 -46.610302 -27.132717 -3.102074 2.068609 -3.590815 14.486445 3.280520 -0.319539 31.410248 -4.712159 5.076931 -31.277489 0.329344 0.219496 -15.984424 -15.789042 -1.037344 22.567381 8.710595 -11.885897 -1.013345 0.146466 0.057023 
